M48
;Layer_Color=9474304
;FILE_FORMAT=2:4
INCH,TZ
;TYPE=PLATED
T1F00S00C0.0280
T2F00S00C0.0402
T3F00S00C0.0787
;TYPE=NON_PLATED
T4F00S00C0.0669
%
T01
X17428Y13748
X18078Y13602
X18678Y14298
X1369Y6381
X26878Y30528
X27528Y30388
T02
X28678Y7898
Y8898
X13628Y7998
Y6998
X11478Y26198
Y27198
X15828Y25898
Y24898
X18078
Y25898
X20478Y25648
Y24648
X27128Y24848
Y25848
T03
X3878Y14296
Y22800
X3896Y24619
Y33123
T04
X19728Y29498
Y32254
M30
