G04*
G04 #@! TF.GenerationSoftware,Altium Limited,Altium Designer,21.5.1 (32)*
G04*
G04 Layer_Physical_Order=1*
G04 Layer_Color=255*
%FSLAX25Y25*%
%MOIN*%
G70*
G04*
G04 #@! TF.SameCoordinates,B2D6323A-8D7E-4EAA-9919-96392ECDF185*
G04*
G04*
G04 #@! TF.FilePolarity,Positive*
G04*
G01*
G75*
%ADD13C,0.01000*%
%ADD14R,0.15590X0.15590*%
%ADD15R,0.11024X0.08661*%
%ADD16R,0.11024X0.11024*%
G04:AMPARAMS|DCode=17|XSize=97.4mil|YSize=24.49mil|CornerRadius=12.25mil|HoleSize=0mil|Usage=FLASHONLY|Rotation=90.000|XOffset=0mil|YOffset=0mil|HoleType=Round|Shape=RoundedRectangle|*
%AMROUNDEDRECTD17*
21,1,0.09740,0.00000,0,0,90.0*
21,1,0.07291,0.02449,0,0,90.0*
1,1,0.02449,0.00000,0.03646*
1,1,0.02449,0.00000,-0.03646*
1,1,0.02449,0.00000,-0.03646*
1,1,0.02449,0.00000,0.03646*
%
%ADD17ROUNDEDRECTD17*%
%ADD18R,0.02449X0.09740*%
%ADD19R,0.06102X0.06102*%
%ADD20R,0.04583X0.01322*%
G04:AMPARAMS|DCode=21|XSize=45.83mil|YSize=13.22mil|CornerRadius=6.61mil|HoleSize=0mil|Usage=FLASHONLY|Rotation=0.000|XOffset=0mil|YOffset=0mil|HoleType=Round|Shape=RoundedRectangle|*
%AMROUNDEDRECTD21*
21,1,0.04583,0.00000,0,0,0.0*
21,1,0.03260,0.01322,0,0,0.0*
1,1,0.01322,0.01630,0.00000*
1,1,0.01322,-0.01630,0.00000*
1,1,0.01322,-0.01630,0.00000*
1,1,0.01322,0.01630,0.00000*
%
%ADD21ROUNDEDRECTD21*%
%ADD22R,0.03740X0.05709*%
%ADD23R,0.06102X0.06102*%
%ADD24R,0.01322X0.04583*%
G04:AMPARAMS|DCode=25|XSize=45.83mil|YSize=13.22mil|CornerRadius=6.61mil|HoleSize=0mil|Usage=FLASHONLY|Rotation=90.000|XOffset=0mil|YOffset=0mil|HoleType=Round|Shape=RoundedRectangle|*
%AMROUNDEDRECTD25*
21,1,0.04583,0.00000,0,0,90.0*
21,1,0.03260,0.01322,0,0,90.0*
1,1,0.01322,0.00000,0.01630*
1,1,0.01322,0.00000,-0.01630*
1,1,0.01322,0.00000,-0.01630*
1,1,0.01322,0.00000,0.01630*
%
%ADD25ROUNDEDRECTD25*%
%ADD26R,0.05709X0.03740*%
%ADD33C,0.06181*%
%ADD34R,0.06181X0.06181*%
%ADD37C,0.11811*%
%ADD38C,0.06693*%
%ADD39C,0.05000*%
D13*
X17779Y64392D02*
Y92979D01*
X17193Y63806D02*
X17779Y64392D01*
X13689Y63806D02*
X17193D01*
X13689D02*
X17735Y59760D01*
Y53979D02*
Y59760D01*
X136279Y137317D02*
X136440Y137479D01*
X174279D01*
X125241Y181279D02*
X125779D01*
X116302D02*
X125241D01*
X125779Y183415D01*
X124456Y178156D02*
X125241Y181279D01*
X178579Y183579D02*
X180779D01*
X178579Y191479D02*
X180579Y193479D01*
X170402Y183301D02*
X178579Y191479D01*
X97779Y76079D02*
X98720D01*
X266279Y300579D02*
X268779D01*
X61379Y89079D02*
X74102D01*
X75779Y29479D02*
Y36079D01*
X63840Y24140D02*
X75779Y36079D01*
X51879Y12179D02*
X63840Y24140D01*
X70440D01*
X42279D02*
X63840D01*
X244640Y290179D02*
X258779D01*
X273779Y297779D02*
X276279D01*
X180779Y186379D02*
X182279D01*
X255579Y101920D02*
Y104479D01*
X247979Y173479D02*
Y177079D01*
Y166479D02*
Y173479D01*
X125779Y187279D02*
X127279D01*
X38963Y225395D02*
Y246186D01*
X128338Y172179D02*
X133638D01*
X93579Y137420D02*
X122238Y166079D01*
X86679Y177679D02*
X98279Y166079D01*
X38963Y225395D02*
X86679Y177679D01*
X98720Y78279D02*
X99979D01*
X180779Y136022D02*
X223779D01*
X251779Y104479D02*
X252579D01*
X255579Y107479D01*
X262379D01*
X275279Y94579D01*
Y90479D02*
Y94579D01*
Y90479D02*
X286779Y78979D01*
X255440Y66979D02*
Y77902D01*
X286779Y78979D01*
X102779Y178156D02*
X124456D01*
X103279Y194301D02*
X116302Y181279D01*
X125779D02*
Y183415D01*
X180779Y181915D02*
Y183579D01*
X178579D02*
Y191479D01*
X180579Y193479D02*
X183897D01*
X185897Y191479D01*
Y187979D02*
Y191479D01*
X156779Y183301D02*
X170402D01*
X182712Y289861D02*
X209379Y263193D01*
Y253479D02*
Y263193D01*
X206979Y251079D02*
X209379Y253479D01*
X200179Y251079D02*
X206979D01*
X200179Y241479D02*
Y251079D01*
Y241479D02*
X204079Y237579D01*
X242279D01*
X263779Y259079D01*
Y295466D01*
X81779Y72597D02*
X82865Y55479D01*
X98279Y166079D02*
X122238D01*
X242279Y172179D02*
X247979Y166479D01*
X38779Y227998D02*
X38963Y225395D01*
X247979Y101920D02*
Y166479D01*
X88222Y236022D02*
X91279D01*
X86679Y234479D02*
X88222Y236022D01*
X86679Y177679D02*
Y234479D01*
X122238Y166079D02*
X128338Y172179D01*
X101279Y71579D02*
Y74447D01*
X100279Y70579D02*
X101279Y71579D01*
X96279Y70579D02*
X100279D01*
X93579Y73279D02*
X96279Y70579D01*
X93579Y73279D02*
Y137420D01*
X128338Y177479D02*
Y183415D01*
Y177479D02*
X133638Y172179D01*
X242279D01*
X183338Y179479D02*
Y181915D01*
Y179479D02*
X184738Y178079D01*
X243379D01*
X247979Y173479D01*
Y101920D02*
X251779D01*
X263779Y314491D02*
Y319479D01*
X265879Y321579D01*
X274479D01*
X279279Y316779D01*
Y300779D02*
Y316779D01*
X276279Y297779D02*
X279279Y300779D01*
X273779Y295466D02*
Y297779D01*
Y305379D02*
Y314491D01*
Y305379D02*
X275279Y303879D01*
X231940Y261479D02*
Y277479D01*
X244640Y290179D01*
X258779D02*
Y295466D01*
X239617Y256325D02*
Y261479D01*
X231602Y248309D02*
X239617Y256325D01*
X231602Y242479D02*
Y248309D01*
X239279Y242479D02*
Y248179D01*
X243079Y251979D01*
Y265879D01*
X236179D02*
X243079D01*
X236179Y257779D02*
Y265879D01*
X235479Y257079D02*
X236179Y257779D01*
X226679Y257079D02*
X235479D01*
X204779Y278979D02*
X226679Y257079D01*
X204779Y278979D02*
Y324979D01*
X254279D01*
X258779Y320479D01*
Y314491D02*
Y320479D01*
X44779Y72479D02*
X48379D01*
X49379Y71479D01*
Y31079D02*
Y71479D01*
X46279Y27979D02*
X49379Y31079D01*
X38879Y27979D02*
X46279D01*
X37379Y29479D02*
X38879Y27979D01*
X37379Y29479D02*
Y68979D01*
X25456Y80901D02*
X37379Y68979D01*
X25456Y80901D02*
Y92979D01*
X70440Y24140D02*
X75779Y29479D01*
X38779Y72879D02*
Y142959D01*
Y72879D02*
X39779Y71879D01*
Y67879D02*
Y71879D01*
Y67879D02*
X42292D01*
X44779Y65392D01*
X208779Y242479D02*
X231602D01*
X204779Y246479D02*
X208779Y242479D01*
X211846Y318994D02*
X220963D01*
X232679Y307279D01*
X259579D01*
X266279Y300579D01*
X268779Y295466D02*
Y300579D01*
X24822Y12235D02*
Y53979D01*
Y12235D02*
X24879Y12179D01*
X51879D01*
X75779Y36079D02*
Y55479D01*
X176179Y253579D02*
X180779Y248979D01*
X153679Y253579D02*
X176179D01*
X146225Y246125D02*
X153679Y253579D01*
X146225Y226087D02*
Y246125D01*
X143817Y223679D02*
X146225Y226087D01*
X96535Y223679D02*
X143817D01*
X91279Y228936D02*
X96535Y223679D01*
X268779Y305279D02*
Y314491D01*
X44779Y34317D02*
Y65392D01*
X42279Y31817D02*
X44779Y34317D01*
X247979Y177079D02*
X275879Y204979D01*
Y277879D01*
X273779Y279979D02*
X275879Y277879D01*
X273779Y279979D02*
Y295466D01*
X133079Y142979D02*
X186779D01*
X131879Y141779D02*
X133079Y142979D01*
X131879Y107335D02*
Y141779D01*
Y107335D02*
X135235Y103979D01*
X98579Y170479D02*
X102779D01*
X97579Y171479D02*
X98579Y170479D01*
X97579Y171479D02*
Y203479D01*
X99979Y205879D01*
X128979D01*
X158279Y235179D01*
Y248979D01*
X185897Y181915D02*
Y182379D01*
X198179Y194660D01*
Y254379D01*
X200279Y256479D01*
X204779D01*
X87679Y289079D02*
X114779Y261979D01*
X87679Y289079D02*
Y301979D01*
X92279Y302979D01*
X223779Y136022D02*
X227279D01*
X228379Y134922D01*
Y114817D02*
Y134922D01*
X194940Y81379D02*
X228379Y114817D01*
X194940Y76979D02*
Y81379D01*
X180779Y208079D02*
Y248979D01*
X160079Y187379D02*
X180779Y208079D01*
X150424Y187379D02*
X160079D01*
X138815Y175770D02*
X150424Y187379D01*
X134279Y175770D02*
X138815D01*
X130897Y179152D02*
X134279Y175770D01*
X130897Y179152D02*
Y183415D01*
X201456Y93079D02*
Y101479D01*
X191479Y83101D02*
X201456Y93079D01*
X191479Y72579D02*
Y83101D01*
Y72579D02*
X198379D01*
Y81379D01*
X216361Y99361D01*
X251779D01*
X201456Y101479D02*
Y106613D01*
X223779Y128936D01*
X136279Y121579D02*
Y129640D01*
Y121579D02*
X142322Y115535D01*
Y103979D02*
Y115535D01*
Y103979D02*
X191279D01*
X193779Y101479D01*
X202617Y65479D02*
Y76979D01*
Y65479D02*
X207717Y60379D01*
X218860D01*
X257842Y99361D01*
Y96342D02*
Y99361D01*
X251979Y90479D02*
X257842Y96342D01*
X251979Y63079D02*
Y90479D01*
Y63079D02*
X253279Y61779D01*
X261417D01*
X263117Y63479D01*
Y66979D01*
X113279Y229936D02*
X137322D01*
X137779Y230392D01*
X140628D01*
X143179Y232943D01*
Y299079D01*
X141779Y300479D02*
X143179Y299079D01*
X140279Y300479D02*
X141779D01*
X138279Y302479D02*
X140279Y300479D01*
X126435Y302479D02*
X138279D01*
X125979Y302022D02*
X126435Y302479D01*
X114279Y302022D02*
X125979D01*
X107722Y308579D02*
X114279Y302022D01*
X87779Y308579D02*
X107722D01*
X85679Y306479D02*
X87779Y308579D01*
X85679Y278879D02*
Y306479D01*
Y278879D02*
X107179Y257379D01*
X119379D01*
Y267379D01*
X114779Y271979D02*
X119379Y267379D01*
X103279Y201979D02*
X126397D01*
X130897Y197479D01*
Y189479D02*
Y197479D01*
Y189479D02*
X132397Y190979D01*
X156779D01*
X98720Y74447D02*
Y76079D01*
X96479Y77379D02*
X97779Y76079D01*
X96479Y77379D02*
Y85579D01*
X97779Y86879D01*
X99779D01*
X103838Y82819D01*
Y80510D02*
Y82819D01*
Y80510D02*
X119247D01*
X119779Y79979D01*
X136279D01*
X44779Y72479D02*
X61379Y89079D01*
X74102D02*
Y91979D01*
X103838Y68656D02*
Y74447D01*
X101779Y66597D02*
X103838Y68656D01*
X87779Y66597D02*
X101779D01*
X81779Y72597D02*
X87779Y66597D01*
X81779Y72597D02*
Y91979D01*
X158279Y258979D02*
Y322868D01*
X162279Y326869D01*
X182712D01*
X101279Y74447D02*
Y76979D01*
X99979Y78279D02*
X101279Y76979D01*
X98720Y78279D02*
Y80510D01*
X91279Y236022D02*
X101779D01*
X102779Y237022D01*
X113279D01*
X128338Y183415D02*
Y186220D01*
X127279Y187279D02*
X128338Y186220D01*
X125779Y187279D02*
Y189479D01*
X113279Y237022D02*
X125279D01*
X125735Y237479D01*
X137779D01*
X138279Y266879D01*
Y295392D01*
X183338Y181915D02*
Y185320D01*
X182279Y186379D02*
X183338Y185320D01*
X180779Y186379D02*
Y187979D01*
X126435Y295392D02*
X138279D01*
X125979Y294935D02*
X126435Y295392D01*
X114279Y294935D02*
X125979D01*
X103735D02*
X114279D01*
X102779Y295892D02*
X103735Y294935D01*
X92279Y295892D02*
X102779D01*
X251779Y101920D02*
X255579D01*
Y104479D02*
X257842D01*
X144277Y31976D02*
X143278Y32976D01*
X141278D01*
X140279Y31976D01*
Y30977D01*
X141278Y29977D01*
X143278D01*
X144277Y28977D01*
Y27978D01*
X143278Y26978D01*
X141278D01*
X140279Y27978D01*
X147276Y31976D02*
Y30977D01*
X146277D01*
X148276D01*
X147276D01*
Y27978D01*
X148276Y26978D01*
X151275Y30977D02*
Y26978D01*
Y28977D01*
X152275Y29977D01*
X153275Y30977D01*
X154274D01*
X157273Y26978D02*
X159273D01*
X158273D01*
Y30977D01*
X157273D01*
X162272Y26978D02*
Y30977D01*
X165271D01*
X166270Y29977D01*
Y26978D01*
X170269Y24979D02*
X171269D01*
X172268Y25978D01*
Y30977D01*
X169269D01*
X168270Y29977D01*
Y27978D01*
X169269Y26978D01*
X172268D01*
D14*
X38779Y185479D02*
D03*
X38963Y288706D02*
D03*
D15*
X211846Y318994D02*
D03*
X182712Y326869D02*
D03*
D16*
Y289861D02*
D03*
D17*
X258779Y314491D02*
D03*
X263779D02*
D03*
X268779D02*
D03*
X273779D02*
D03*
Y295466D02*
D03*
X268779D02*
D03*
X263779D02*
D03*
D18*
X258779D02*
D03*
D19*
X223779Y128936D02*
D03*
Y136022D02*
D03*
X44779Y65392D02*
D03*
Y72479D02*
D03*
X92279Y302979D02*
D03*
Y295892D02*
D03*
X114279Y302022D02*
D03*
Y294935D02*
D03*
X138279Y302479D02*
D03*
Y295392D02*
D03*
X91279Y236022D02*
D03*
Y228936D02*
D03*
X113279Y237022D02*
D03*
Y229936D02*
D03*
X137779Y237479D02*
D03*
Y230392D02*
D03*
D20*
X251779Y104479D02*
D03*
D21*
Y101920D02*
D03*
Y99361D02*
D03*
X257842D02*
D03*
Y104479D02*
D03*
D22*
X263117Y66979D02*
D03*
X255440D02*
D03*
X194940Y76979D02*
D03*
X202617D02*
D03*
X17779Y92979D02*
D03*
X25456D02*
D03*
X239617Y261479D02*
D03*
X231940D02*
D03*
X231602Y242479D02*
D03*
X239279D02*
D03*
X193779Y101479D02*
D03*
X201456D02*
D03*
X74102Y91979D02*
D03*
X81779D02*
D03*
D23*
X135235Y103979D02*
D03*
X142322D02*
D03*
X82865Y55479D02*
D03*
X75779D02*
D03*
X17735Y53979D02*
D03*
X24822D02*
D03*
D24*
X98720Y74447D02*
D03*
X125779Y183415D02*
D03*
X180779Y181915D02*
D03*
D25*
X101279Y74447D02*
D03*
X103838D02*
D03*
Y80510D02*
D03*
X98720D02*
D03*
X128338Y183415D02*
D03*
X130897D02*
D03*
Y189479D02*
D03*
X125779D02*
D03*
X183338Y181915D02*
D03*
X185897D02*
D03*
Y187979D02*
D03*
X180779D02*
D03*
D26*
X42279Y31817D02*
D03*
Y24140D02*
D03*
X102779Y170479D02*
D03*
Y178156D02*
D03*
X136279Y129640D02*
D03*
Y137317D02*
D03*
X103279Y194301D02*
D03*
Y201979D02*
D03*
X156779Y190979D02*
D03*
Y183301D02*
D03*
D33*
X114779Y271979D02*
D03*
X271279Y258479D02*
D03*
X286779Y78979D02*
D03*
X136279Y79979D02*
D03*
X204779Y256479D02*
D03*
X180779Y248979D02*
D03*
X158279D02*
D03*
D34*
X114779Y261979D02*
D03*
X271279Y248479D02*
D03*
X286779Y88979D02*
D03*
X136279Y69979D02*
D03*
X204779Y246479D02*
D03*
X180779Y258979D02*
D03*
X158279D02*
D03*
D37*
X38779Y227998D02*
D03*
Y142959D02*
D03*
X38963Y331226D02*
D03*
Y246186D02*
D03*
D38*
X197279Y322538D02*
D03*
Y294979D02*
D03*
D39*
X13689Y63806D02*
D03*
X174279Y137479D02*
D03*
X180779Y136022D02*
D03*
X275279Y303879D02*
D03*
X268779Y305279D02*
D03*
X186779Y142979D02*
D03*
M02*
