G04*
G04 #@! TF.GenerationSoftware,Altium Limited,Altium Designer,21.5.1 (32)*
G04*
G04 Layer_Color=0*
%FSLAX25Y25*%
%MOIN*%
G70*
G04*
G04 #@! TF.SameCoordinates,B2D6323A-8D7E-4EAA-9919-96392ECDF185*
G04*
G04*
G04 #@! TF.FilePolarity,Positive*
G04*
G01*
G75*
%ADD41C,0.00394*%
D41*
X112810Y266979D02*
X116747D01*
X114779Y265010D02*
Y268947D01*
X264310Y304979D02*
X268247D01*
X266279Y303010D02*
Y306947D01*
X269310Y253479D02*
X273247D01*
X271279Y251510D02*
Y255447D01*
X252842Y101920D02*
X256779D01*
X254811Y99951D02*
Y103888D01*
X284810Y83979D02*
X288747D01*
X286779Y82010D02*
Y85947D01*
X257310Y66979D02*
X261247D01*
X259279Y65010D02*
Y68947D01*
X196810Y76979D02*
X200747D01*
X198779Y75010D02*
Y78947D01*
X134310Y74979D02*
X138247D01*
X136279Y73010D02*
Y76947D01*
X101279Y75510D02*
Y79447D01*
X99310Y77479D02*
X103247D01*
X42279Y26010D02*
Y29947D01*
X40310Y27979D02*
X44247D01*
X19649Y92979D02*
X23586D01*
X21617Y91010D02*
Y94947D01*
X233810Y261479D02*
X237747D01*
X235779Y259510D02*
Y263447D01*
X233471Y242479D02*
X237408D01*
X235440Y240510D02*
Y244447D01*
X202810Y251479D02*
X206747D01*
X204779Y249510D02*
Y253447D01*
X178810Y253979D02*
X182747D01*
X180779Y252010D02*
Y255947D01*
X156310Y253979D02*
X160247D01*
X158279Y252010D02*
Y255947D01*
X128338Y184478D02*
Y188416D01*
X126369Y186447D02*
X130306D01*
X183338Y182978D02*
Y186915D01*
X181369Y184947D02*
X185306D01*
X102779Y172349D02*
Y176286D01*
X100810Y174317D02*
X104747D01*
X195649Y101479D02*
X199586D01*
X197617Y99510D02*
Y103447D01*
X75972Y91979D02*
X79909D01*
X77940Y90010D02*
Y93947D01*
X136279Y131510D02*
Y135447D01*
X134310Y133479D02*
X138247D01*
X103279Y196172D02*
Y200109D01*
X101310Y198140D02*
X105247D01*
X156779Y185172D02*
Y189109D01*
X154810Y187140D02*
X158747D01*
M02*
