G04*
G04 #@! TF.GenerationSoftware,Altium Limited,Altium Designer,21.5.1 (32)*
G04*
G04 Layer_Physical_Order=2*
G04 Layer_Color=16711680*
%FSLAX25Y25*%
%MOIN*%
G70*
G04*
G04 #@! TF.SameCoordinates,B2D6323A-8D7E-4EAA-9919-96392ECDF185*
G04*
G04*
G04 #@! TF.FilePolarity,Positive*
G04*
G01*
G75*
%ADD13C,0.01000*%
%ADD33C,0.06181*%
%ADD34R,0.06181X0.06181*%
%ADD37C,0.11811*%
%ADD38C,0.06693*%
%ADD39C,0.05000*%
G36*
X319500Y348500D02*
Y0D01*
X0D01*
Y500D01*
X-500Y1000D01*
Y349000D01*
X319000D01*
X319500Y348500D01*
D02*
G37*
%LPC*%
G36*
X38462Y338131D02*
X38282D01*
X36948Y337866D01*
X35691Y337345D01*
X34560Y336590D01*
X33599Y335628D01*
X32843Y334497D01*
X32322Y333240D01*
X32057Y331906D01*
Y331726D01*
X38462D01*
Y338131D01*
D02*
G37*
G36*
Y330726D02*
X32057D01*
Y330545D01*
X32322Y329211D01*
X32843Y327955D01*
X33599Y326824D01*
X34560Y325862D01*
X35691Y325106D01*
X36948Y324586D01*
X38282Y324320D01*
X38462D01*
Y330726D01*
D02*
G37*
G36*
X197745Y326081D02*
X196812D01*
X195911Y325839D01*
X195103Y325373D01*
X194443Y324713D01*
X193977Y323905D01*
X193735Y323004D01*
Y322071D01*
X193977Y321170D01*
X194443Y320362D01*
X195103Y319702D01*
X195911Y319236D01*
X196812Y318994D01*
X197745D01*
X198646Y319236D01*
X199454Y319702D01*
X200114Y320362D01*
X200581Y321170D01*
X200822Y322071D01*
Y323004D01*
X200581Y323905D01*
X200114Y324713D01*
X199454Y325373D01*
X198646Y325839D01*
X197745Y326081D01*
D02*
G37*
G36*
X272279Y309989D02*
X241079D01*
X240807Y309935D01*
X240576Y309781D01*
X183136Y252341D01*
X182358Y252790D01*
X181317Y253069D01*
X181279D01*
Y249479D01*
X184869D01*
Y249517D01*
X184590Y250557D01*
X184141Y251336D01*
X241373Y308568D01*
X271984D01*
X273311Y307242D01*
X273245Y306746D01*
X273130Y306679D01*
X272478Y306028D01*
X272017Y305230D01*
X271975Y305074D01*
X271476Y305140D01*
Y305634D01*
X271292Y306320D01*
X270937Y306935D01*
X270435Y307437D01*
X269820Y307792D01*
X269134Y307976D01*
X268424D01*
X267738Y307792D01*
X267123Y307437D01*
X266621Y306935D01*
X266266Y306320D01*
X266082Y305634D01*
Y304924D01*
X266266Y304238D01*
X266621Y303623D01*
X267123Y303121D01*
X267738Y302766D01*
X268424Y302582D01*
X269134D01*
X269820Y302766D01*
X270116Y302937D01*
X270568Y302484D01*
Y261692D01*
X270010Y261542D01*
X269260Y261109D01*
X268648Y260497D01*
X268215Y259748D01*
X267991Y258911D01*
Y258046D01*
X268215Y257210D01*
X268648Y256460D01*
X269260Y255848D01*
X270010Y255415D01*
X270846Y255191D01*
X271711D01*
X272548Y255415D01*
X273297Y255848D01*
X273909Y256460D01*
X274342Y257210D01*
X274566Y258046D01*
Y258911D01*
X274342Y259748D01*
X273909Y260497D01*
X273297Y261109D01*
X272548Y261542D01*
X271989Y261692D01*
Y301576D01*
X272437Y301717D01*
X272489Y301718D01*
X273130Y301078D01*
X273928Y300617D01*
X274779Y300389D01*
Y303879D01*
Y307784D01*
X272781Y309781D01*
X272551Y309935D01*
X272279Y309989D01*
D02*
G37*
G36*
X275779Y307368D02*
Y304379D01*
X278768D01*
X278540Y305230D01*
X278079Y306028D01*
X277428Y306679D01*
X276630Y307140D01*
X275779Y307368D01*
D02*
G37*
G36*
X278768Y303379D02*
X275779D01*
Y300389D01*
X276630Y300617D01*
X277428Y301078D01*
X278079Y301730D01*
X278540Y302528D01*
X278768Y303379D01*
D02*
G37*
G36*
X197745Y298522D02*
X196812D01*
X195911Y298281D01*
X195103Y297814D01*
X194443Y297154D01*
X193977Y296346D01*
X193735Y295445D01*
Y294512D01*
X193977Y293611D01*
X194443Y292803D01*
X195103Y292143D01*
X195911Y291677D01*
X196812Y291435D01*
X197745D01*
X198646Y291677D01*
X199454Y292143D01*
X200114Y292803D01*
X200581Y293611D01*
X200822Y294512D01*
Y295445D01*
X200581Y296346D01*
X200114Y297154D01*
X199454Y297814D01*
X198646Y298281D01*
X197745Y298522D01*
D02*
G37*
G36*
X39643Y338131D02*
X39463D01*
Y331226D01*
Y324320D01*
X39643D01*
X40977Y324586D01*
X42233Y325106D01*
X43365Y325862D01*
X44326Y326824D01*
X45082Y327955D01*
X45603Y329211D01*
X45862Y330515D01*
X72237D01*
X114068Y288684D01*
Y276352D01*
X114122Y276080D01*
X114276Y275849D01*
X114401Y275725D01*
X114193Y275225D01*
X113510Y275042D01*
X112760Y274609D01*
X112148Y273997D01*
X111715Y273248D01*
X111491Y272411D01*
Y271546D01*
X111715Y270710D01*
X112148Y269960D01*
X112760Y269348D01*
X113510Y268915D01*
X114193Y268732D01*
X114401Y268233D01*
X114276Y268108D01*
X114122Y267877D01*
X114068Y267605D01*
Y266069D01*
X110688D01*
Y262479D01*
X114779D01*
X118869D01*
Y266069D01*
X115489D01*
Y267311D01*
X115659Y267481D01*
X116348D01*
X116619Y267535D01*
X116850Y267689D01*
X119069Y269907D01*
X119222Y270138D01*
X119277Y270410D01*
Y273547D01*
X119222Y273819D01*
X119069Y274050D01*
X116850Y276269D01*
X116619Y276423D01*
X116348Y276477D01*
X115659D01*
X115489Y276646D01*
Y288979D01*
X115435Y289251D01*
X115281Y289481D01*
X73034Y331728D01*
X72804Y331882D01*
X72532Y331936D01*
X45862D01*
X45603Y333240D01*
X45082Y334497D01*
X44326Y335628D01*
X43365Y336590D01*
X42233Y337345D01*
X40977Y337866D01*
X39643Y338131D01*
D02*
G37*
G36*
X184066Y262266D02*
X177491D01*
Y259689D01*
X161566D01*
Y262266D01*
X154991D01*
Y255691D01*
X161566D01*
Y258268D01*
X177491D01*
Y255691D01*
X184066D01*
Y262266D01*
D02*
G37*
G36*
X114279Y261479D02*
X110688D01*
Y257888D01*
X114279D01*
Y261479D01*
D02*
G37*
G36*
X205211Y259766D02*
X204346D01*
X203510Y259542D01*
X202760Y259109D01*
X202148Y258497D01*
X201715Y257748D01*
X201491Y256911D01*
Y256046D01*
X201715Y255210D01*
X202148Y254460D01*
X202760Y253848D01*
X203510Y253415D01*
X204346Y253191D01*
X205211D01*
X206048Y253415D01*
X206797Y253848D01*
X207409Y254460D01*
X207842Y255210D01*
X208066Y256046D01*
Y256911D01*
X207842Y257748D01*
X207409Y258497D01*
X206797Y259109D01*
X206048Y259542D01*
X205211Y259766D01*
D02*
G37*
G36*
X180279Y253069D02*
X180240D01*
X179200Y252790D01*
X178267Y252252D01*
X177505Y251490D01*
X176967Y250557D01*
X176688Y249517D01*
Y249479D01*
X180279D01*
Y253069D01*
D02*
G37*
G36*
X158712Y252266D02*
X157846D01*
X157010Y252042D01*
X156260Y251609D01*
X155648Y250997D01*
X155215Y250248D01*
X154991Y249412D01*
Y248546D01*
X155215Y247710D01*
X155648Y246960D01*
X156260Y246348D01*
X157010Y245915D01*
X157846Y245691D01*
X158712D01*
X159548Y245915D01*
X160297Y246348D01*
X160909Y246960D01*
X161342Y247710D01*
X161566Y248546D01*
Y249412D01*
X161342Y250248D01*
X160909Y250997D01*
X160297Y251609D01*
X159548Y252042D01*
X158712Y252266D01*
D02*
G37*
G36*
X208066Y249766D02*
X201491D01*
Y243191D01*
X208066D01*
Y249766D01*
D02*
G37*
G36*
X39564Y252289D02*
X38361D01*
X37183Y252054D01*
X36072Y251594D01*
X35072Y250926D01*
X34222Y250076D01*
X33555Y249077D01*
X33095Y247966D01*
X32860Y246787D01*
Y245585D01*
X33095Y244406D01*
X33555Y243296D01*
X34222Y242296D01*
X35072Y241446D01*
X36072Y240778D01*
X37183Y240318D01*
X38361Y240084D01*
X39564D01*
X40742Y240318D01*
X41853Y240778D01*
X42853Y241446D01*
X43703Y242296D01*
X44370Y243296D01*
X44830Y244406D01*
X45065Y245585D01*
Y246787D01*
X44830Y247966D01*
X44370Y249077D01*
X43703Y250076D01*
X42853Y250926D01*
X41853Y251594D01*
X40742Y252054D01*
X39564Y252289D01*
D02*
G37*
G36*
X39380Y234101D02*
X38178D01*
X36999Y233866D01*
X35888Y233406D01*
X34889Y232738D01*
X34039Y231889D01*
X33371Y230889D01*
X32911Y229779D01*
X32676Y228600D01*
Y227397D01*
X32911Y226219D01*
X33371Y225108D01*
X34039Y224108D01*
X34889Y223258D01*
X35888Y222591D01*
X36999Y222131D01*
X38178Y221896D01*
X39380D01*
X40559Y222131D01*
X41669Y222591D01*
X42669Y223258D01*
X43519Y224108D01*
X44186Y225108D01*
X44646Y226219D01*
X44881Y227397D01*
Y228600D01*
X44646Y229779D01*
X44186Y230889D01*
X43519Y231889D01*
X42669Y232738D01*
X41669Y233406D01*
X40559Y233866D01*
X39380Y234101D01*
D02*
G37*
G36*
X38279Y149865D02*
X38099D01*
X36764Y149599D01*
X35508Y149079D01*
X34377Y148323D01*
X33415Y147361D01*
X32659Y146230D01*
X32139Y144973D01*
X31873Y143639D01*
Y143459D01*
X38279D01*
Y149865D01*
D02*
G37*
G36*
X274566Y251766D02*
X267991D01*
Y246196D01*
X186276Y164481D01*
X186122Y164251D01*
X186068Y163979D01*
Y145580D01*
X185738Y145492D01*
X185123Y145137D01*
X184621Y144635D01*
X184266Y144020D01*
X184082Y143334D01*
Y142624D01*
X184266Y141938D01*
X184621Y141323D01*
X185123Y140821D01*
X185738Y140466D01*
X186424Y140282D01*
X187134D01*
X187820Y140466D01*
X188435Y140821D01*
X188937Y141323D01*
X189292Y141938D01*
X189476Y142624D01*
Y143334D01*
X189292Y144020D01*
X188937Y144635D01*
X188435Y145137D01*
X187820Y145492D01*
X187489Y145580D01*
Y163684D01*
X268996Y245191D01*
X274566D01*
Y251766D01*
D02*
G37*
G36*
X118869Y261479D02*
X115279D01*
Y257888D01*
X117864D01*
X146776Y228976D01*
X147007Y228822D01*
X147279Y228768D01*
X158910D01*
X159101Y228306D01*
X74465Y143670D01*
X45678D01*
X45419Y144973D01*
X44898Y146230D01*
X44142Y147361D01*
X43181Y148323D01*
X42050Y149079D01*
X40793Y149599D01*
X39459Y149865D01*
X39279D01*
Y142959D01*
Y136054D01*
X39459D01*
X40793Y136319D01*
X42050Y136839D01*
X43181Y137595D01*
X44142Y138557D01*
X44898Y139688D01*
X45419Y140945D01*
X45678Y142249D01*
X74759D01*
X75031Y142303D01*
X75261Y142457D01*
X161781Y228976D01*
X178421Y245616D01*
X179200Y245167D01*
X180068Y244934D01*
Y143273D01*
X176751Y139956D01*
X176428Y140279D01*
X175630Y140740D01*
X174779Y140968D01*
Y137479D01*
Y133989D01*
X175630Y134217D01*
X176428Y134678D01*
X176877Y135127D01*
X177435Y134980D01*
X177517Y134671D01*
X177978Y133873D01*
X178630Y133221D01*
X179428Y132761D01*
X180279Y132533D01*
Y136022D01*
X180779D01*
Y136522D01*
X184268D01*
X184040Y137373D01*
X183579Y138171D01*
X182928Y138823D01*
X182130Y139284D01*
X181489Y139455D01*
Y142979D01*
Y244934D01*
X182358Y245167D01*
X183290Y245705D01*
X184052Y246467D01*
X184590Y247400D01*
X184869Y248440D01*
Y248479D01*
X180779D01*
X176688D01*
Y248440D01*
X176967Y247400D01*
X177416Y246621D01*
X160984Y230189D01*
X147573D01*
X118869Y258893D01*
Y261479D01*
D02*
G37*
G36*
X173779Y140968D02*
X172928Y140740D01*
X172130Y140279D01*
X171478Y139628D01*
X171017Y138830D01*
X170789Y137979D01*
X173779D01*
Y140968D01*
D02*
G37*
G36*
X38279Y142459D02*
X31873D01*
Y142279D01*
X32139Y140945D01*
X32659Y139688D01*
X33415Y138557D01*
X34377Y137595D01*
X35508Y136839D01*
X36764Y136319D01*
X38099Y136054D01*
X38279D01*
Y142459D01*
D02*
G37*
G36*
X173779Y136979D02*
X170789D01*
X171017Y136128D01*
X171478Y135330D01*
X172130Y134678D01*
X172928Y134217D01*
X173779Y133989D01*
Y136979D01*
D02*
G37*
G36*
X184268Y135522D02*
X181279D01*
Y132533D01*
X182130Y132761D01*
X182928Y133221D01*
X183579Y133873D01*
X184040Y134671D01*
X184268Y135522D01*
D02*
G37*
G36*
X290066Y92266D02*
X283491D01*
Y89689D01*
X44279D01*
X44007Y89635D01*
X43776Y89481D01*
X33874Y79579D01*
X33720Y79349D01*
X33666Y79077D01*
Y75871D01*
X24484Y66689D01*
X23696D01*
X23424Y66635D01*
X23194Y66481D01*
X21230Y64517D01*
X16291D01*
X16202Y64847D01*
X15847Y65462D01*
X15345Y65964D01*
X14730Y66319D01*
X14044Y66503D01*
X13334D01*
X12648Y66319D01*
X12033Y65964D01*
X11531Y65462D01*
X11176Y64847D01*
X10992Y64161D01*
Y63451D01*
X11176Y62765D01*
X11531Y62150D01*
X12033Y61648D01*
X12648Y61293D01*
X13334Y61110D01*
X14044D01*
X14730Y61293D01*
X15345Y61648D01*
X15847Y62150D01*
X16202Y62765D01*
X16291Y63096D01*
X21524D01*
X21796Y63150D01*
X22026Y63304D01*
X23991Y65268D01*
X24779D01*
X25051Y65322D01*
X25281Y65476D01*
X34879Y75074D01*
X35033Y75305D01*
X35087Y75577D01*
Y78782D01*
X44573Y88268D01*
X283491D01*
Y85691D01*
X290066D01*
Y92266D01*
D02*
G37*
G36*
X136712Y83266D02*
X135846D01*
X135010Y83042D01*
X134260Y82609D01*
X133648Y81997D01*
X133215Y81248D01*
X132991Y80411D01*
Y79546D01*
X133215Y78710D01*
X133648Y77960D01*
X134260Y77348D01*
X135010Y76915D01*
X135846Y76691D01*
X136712D01*
X137548Y76915D01*
X138297Y77348D01*
X138909Y77960D01*
X139342Y78710D01*
X139566Y79546D01*
Y80411D01*
X139342Y81248D01*
X138909Y81997D01*
X138297Y82609D01*
X137548Y83042D01*
X136712Y83266D01*
D02*
G37*
G36*
X287211Y82266D02*
X286346D01*
X285510Y82042D01*
X284760Y81609D01*
X284148Y80997D01*
X283715Y80248D01*
X283491Y79412D01*
Y78546D01*
X283715Y77710D01*
X284148Y76960D01*
X284760Y76348D01*
X285510Y75915D01*
X286346Y75691D01*
X287211D01*
X288048Y75915D01*
X288797Y76348D01*
X289409Y76960D01*
X289842Y77710D01*
X290066Y78546D01*
Y79412D01*
X289842Y80248D01*
X289409Y80997D01*
X288797Y81609D01*
X288048Y82042D01*
X287211Y82266D01*
D02*
G37*
G36*
X139566Y73266D02*
X132991D01*
Y66691D01*
X139566D01*
Y73266D01*
D02*
G37*
%LPD*%
D13*
X72532Y331226D02*
X114779Y288979D01*
X38963Y331226D02*
X72532D01*
X114779Y276352D02*
Y288979D01*
Y267605D02*
X115365Y268191D01*
X116348D01*
X114779Y261979D02*
Y267605D01*
X115365Y275766D02*
X116348D01*
Y268191D02*
X118566Y270410D01*
X116348Y275766D02*
X118566Y273547D01*
Y270410D02*
Y273547D01*
X114779Y276352D02*
X115365Y275766D01*
X23696Y65979D02*
X24779D01*
X34377Y75577D02*
Y79077D01*
X24779Y65979D02*
X34377Y75577D01*
X13689Y63806D02*
X21524D01*
X23696Y65979D01*
X34377Y79077D02*
X44279Y88979D01*
X286779D01*
X174279Y137479D02*
X175279D01*
X180779Y142979D01*
Y136022D02*
Y142979D01*
Y248979D01*
X161279Y229479D02*
X180779Y248979D01*
X74759Y142959D02*
X161279Y229479D01*
X38779Y142959D02*
X74759D01*
X114779Y261979D02*
X147279Y229479D01*
X161279D01*
X275279Y303879D02*
Y306279D01*
X272279Y309279D02*
X275279Y306279D01*
X241079Y309279D02*
X272279D01*
X180779Y248979D02*
X241079Y309279D01*
X271279Y258479D02*
Y302779D01*
X268779Y305279D02*
X271279Y302779D01*
X186779Y163979D02*
X271279Y248479D01*
X186779Y142979D02*
Y163979D01*
X158279Y258979D02*
X180779D01*
D33*
X114779Y271979D02*
D03*
X271279Y258479D02*
D03*
X286779Y78979D02*
D03*
X136279Y79979D02*
D03*
X204779Y256479D02*
D03*
X180779Y248979D02*
D03*
X158279D02*
D03*
D34*
X114779Y261979D02*
D03*
X271279Y248479D02*
D03*
X286779Y88979D02*
D03*
X136279Y69979D02*
D03*
X204779Y246479D02*
D03*
X180779Y258979D02*
D03*
X158279D02*
D03*
D37*
X38779Y227998D02*
D03*
Y142959D02*
D03*
X38963Y331226D02*
D03*
Y246186D02*
D03*
D38*
X197279Y322538D02*
D03*
Y294979D02*
D03*
D39*
X13689Y63806D02*
D03*
X174279Y137479D02*
D03*
X180779Y136022D02*
D03*
X275279Y303879D02*
D03*
X268779Y305279D02*
D03*
X186779Y142979D02*
D03*
M02*
