G04*
G04 #@! TF.GenerationSoftware,Altium Limited,Altium Designer,21.5.1 (32)*
G04*
G04 Layer_Color=8388736*
%FSLAX25Y25*%
%MOIN*%
G70*
G04*
G04 #@! TF.SameCoordinates,B2D6323A-8D7E-4EAA-9919-96392ECDF185*
G04*
G04*
G04 #@! TF.FilePolarity,Negative*
G04*
G01*
G75*
G04:AMPARAMS|DCode=17|XSize=97.4mil|YSize=24.49mil|CornerRadius=12.25mil|HoleSize=0mil|Usage=FLASHONLY|Rotation=90.000|XOffset=0mil|YOffset=0mil|HoleType=Round|Shape=RoundedRectangle|*
%AMROUNDEDRECTD17*
21,1,0.09740,0.00000,0,0,90.0*
21,1,0.07291,0.02449,0,0,90.0*
1,1,0.02449,0.00000,0.03646*
1,1,0.02449,0.00000,-0.03646*
1,1,0.02449,0.00000,-0.03646*
1,1,0.02449,0.00000,0.03646*
%
%ADD17ROUNDEDRECTD17*%
%ADD18R,0.02449X0.09740*%
%ADD20R,0.04583X0.01322*%
G04:AMPARAMS|DCode=21|XSize=45.83mil|YSize=13.22mil|CornerRadius=6.61mil|HoleSize=0mil|Usage=FLASHONLY|Rotation=0.000|XOffset=0mil|YOffset=0mil|HoleType=Round|Shape=RoundedRectangle|*
%AMROUNDEDRECTD21*
21,1,0.04583,0.00000,0,0,0.0*
21,1,0.03260,0.01322,0,0,0.0*
1,1,0.01322,0.01630,0.00000*
1,1,0.01322,-0.01630,0.00000*
1,1,0.01322,-0.01630,0.00000*
1,1,0.01322,0.01630,0.00000*
%
%ADD21ROUNDEDRECTD21*%
%ADD22R,0.03740X0.05709*%
%ADD24R,0.01322X0.04583*%
G04:AMPARAMS|DCode=25|XSize=45.83mil|YSize=13.22mil|CornerRadius=6.61mil|HoleSize=0mil|Usage=FLASHONLY|Rotation=90.000|XOffset=0mil|YOffset=0mil|HoleType=Round|Shape=RoundedRectangle|*
%AMROUNDEDRECTD25*
21,1,0.04583,0.00000,0,0,90.0*
21,1,0.03260,0.01322,0,0,90.0*
1,1,0.01322,0.00000,0.01630*
1,1,0.01322,0.00000,-0.01630*
1,1,0.01322,0.00000,-0.01630*
1,1,0.01322,0.00000,0.01630*
%
%ADD25ROUNDEDRECTD25*%
%ADD26R,0.05709X0.03740*%
%ADD27R,0.16391X0.16391*%
%ADD28R,0.11824X0.09461*%
%ADD29R,0.11824X0.11824*%
%ADD30R,0.06902X0.06902*%
%ADD31R,0.06902X0.06902*%
%ADD32C,0.12611*%
%ADD33C,0.06181*%
%ADD34R,0.06181X0.06181*%
%ADD35C,0.07493*%
%ADD36C,0.05800*%
D17*
X258779Y314491D02*
D03*
X263779D02*
D03*
X268779D02*
D03*
X273779D02*
D03*
Y295466D02*
D03*
X268779D02*
D03*
X263779D02*
D03*
D18*
X258779D02*
D03*
D20*
X251779Y104479D02*
D03*
D21*
Y101920D02*
D03*
Y99361D02*
D03*
X257842D02*
D03*
Y104479D02*
D03*
D22*
X263117Y66979D02*
D03*
X255440D02*
D03*
X194940Y76979D02*
D03*
X202617D02*
D03*
X17779Y92979D02*
D03*
X25456D02*
D03*
X239617Y261479D02*
D03*
X231940D02*
D03*
X231602Y242479D02*
D03*
X239279D02*
D03*
X193779Y101479D02*
D03*
X201456D02*
D03*
X74102Y91979D02*
D03*
X81779D02*
D03*
D24*
X98720Y74447D02*
D03*
X125779Y183415D02*
D03*
X180779Y181915D02*
D03*
D25*
X101279Y74447D02*
D03*
X103838D02*
D03*
Y80510D02*
D03*
X98720D02*
D03*
X128338Y183415D02*
D03*
X130897D02*
D03*
Y189479D02*
D03*
X125779D02*
D03*
X183338Y181915D02*
D03*
X185897D02*
D03*
Y187979D02*
D03*
X180779D02*
D03*
D26*
X42279Y31817D02*
D03*
Y24140D02*
D03*
X102779Y170479D02*
D03*
Y178156D02*
D03*
X136279Y129640D02*
D03*
Y137317D02*
D03*
X103279Y194301D02*
D03*
Y201979D02*
D03*
X156779Y190979D02*
D03*
Y183301D02*
D03*
D27*
X38779Y185479D02*
D03*
X38963Y288706D02*
D03*
D28*
X211846Y318994D02*
D03*
X182712Y326869D02*
D03*
D29*
Y289861D02*
D03*
D30*
X223779Y128936D02*
D03*
Y136022D02*
D03*
X44779Y65392D02*
D03*
Y72479D02*
D03*
X92279Y302979D02*
D03*
Y295892D02*
D03*
X114279Y302022D02*
D03*
Y294935D02*
D03*
X138279Y302479D02*
D03*
Y295392D02*
D03*
X91279Y236022D02*
D03*
Y228936D02*
D03*
X113279Y237022D02*
D03*
Y229936D02*
D03*
X137779Y237479D02*
D03*
Y230392D02*
D03*
D31*
X135235Y103979D02*
D03*
X142322D02*
D03*
X82865Y55479D02*
D03*
X75779D02*
D03*
X17735Y53979D02*
D03*
X24822D02*
D03*
D32*
X38779Y227998D02*
D03*
Y142959D02*
D03*
X38963Y331226D02*
D03*
Y246186D02*
D03*
D33*
X114779Y271979D02*
D03*
X271279Y258479D02*
D03*
X286779Y78979D02*
D03*
X136279Y79979D02*
D03*
X204779Y256479D02*
D03*
X180779Y248979D02*
D03*
X158279D02*
D03*
D34*
X114779Y261979D02*
D03*
X271279Y248479D02*
D03*
X286779Y88979D02*
D03*
X136279Y69979D02*
D03*
X204779Y246479D02*
D03*
X180779Y258979D02*
D03*
X158279D02*
D03*
D35*
X197279Y322538D02*
D03*
Y294979D02*
D03*
D36*
X13689Y63806D02*
D03*
X174279Y137479D02*
D03*
X180779Y136022D02*
D03*
X275279Y303879D02*
D03*
X268779Y305279D02*
D03*
X186779Y142979D02*
D03*
M02*
