G04*
G04 #@! TF.GenerationSoftware,Altium Limited,Altium Designer,21.5.1 (32)*
G04*
G04 Layer_Color=16711935*
%FSLAX25Y25*%
%MOIN*%
G70*
G04*
G04 #@! TF.SameCoordinates,B2D6323A-8D7E-4EAA-9919-96392ECDF185*
G04*
G04*
G04 #@! TF.FilePolarity,Positive*
G04*
G01*
G75*
%ADD11C,0.00787*%
%ADD12C,0.00500*%
%ADD41C,0.00394*%
D11*
X184680Y339467D02*
X183893D01*
X184680D01*
X109523Y256231D02*
X120035D01*
Y277727D01*
X109523D02*
X120035D01*
X109523Y256231D02*
Y277727D01*
X256633Y297302D02*
X275924D01*
Y312656D01*
X256633D02*
X275924D01*
X256633Y297302D02*
Y312656D01*
X266023Y242731D02*
X276535D01*
Y264227D01*
X266023D02*
X276535D01*
X266023Y242731D02*
Y264227D01*
X252350Y105857D02*
X257271D01*
Y97983D02*
Y105857D01*
X252350Y97983D02*
X257271D01*
X252350D02*
Y105857D01*
X281523Y94727D02*
X292035D01*
X281523Y73231D02*
Y94727D01*
Y73231D02*
X292035D01*
Y94727D01*
X254948Y64223D02*
X263610D01*
X254948D02*
Y69735D01*
X263610D01*
Y64223D02*
Y69735D01*
X194448Y79735D02*
X203110D01*
Y74223D02*
Y79735D01*
X194448Y74223D02*
X203110D01*
X194448D02*
Y79735D01*
X131023Y64231D02*
X141535D01*
Y85727D01*
X131023D02*
X141535D01*
X131023Y64231D02*
Y85727D01*
X97342Y75018D02*
Y79939D01*
X105216D01*
Y75018D02*
Y79939D01*
X97342Y75018D02*
X105216D01*
X45035Y23648D02*
Y32309D01*
X39523Y23648D02*
X45035D01*
X39523D02*
Y32309D01*
X45035D01*
X17287Y95735D02*
X25948D01*
Y90223D02*
Y95735D01*
X17287Y90223D02*
X25948D01*
X17287D02*
Y95735D01*
X231448Y258723D02*
X240109D01*
X231448D02*
Y264235D01*
X240109D01*
Y258723D02*
Y264235D01*
X231109Y245235D02*
X239771D01*
Y239723D02*
Y245235D01*
X231109Y239723D02*
X239771D01*
X231109D02*
Y245235D01*
X199523Y240731D02*
X210035D01*
Y262227D01*
X199523D02*
X210035D01*
X199523Y240731D02*
Y262227D01*
X175523Y264727D02*
X186035D01*
X175523Y243231D02*
Y264727D01*
Y243231D02*
X186035D01*
Y264727D01*
X153023D02*
X163535D01*
X153023Y243231D02*
Y264727D01*
Y243231D02*
X163535D01*
Y264727D01*
X124401Y183986D02*
Y188908D01*
X132275D01*
Y183986D02*
Y188908D01*
X124401Y183986D02*
X132275D01*
X179401Y182486D02*
Y187408D01*
X187275D01*
Y182486D02*
Y187408D01*
X179401Y182486D02*
X187275D01*
X100023Y169987D02*
Y178648D01*
X105535D01*
Y169987D02*
Y178648D01*
X100023Y169987D02*
X105535D01*
X193287Y104235D02*
X201948D01*
Y98723D02*
Y104235D01*
X193287Y98723D02*
X201948D01*
X193287D02*
Y104235D01*
X73610Y94735D02*
X82271D01*
Y89223D02*
Y94735D01*
X73610Y89223D02*
X82271D01*
X73610D02*
Y94735D01*
X133523Y129148D02*
Y137810D01*
X139035D01*
Y129148D02*
Y137810D01*
X133523Y129148D02*
X139035D01*
X100523Y193809D02*
Y202471D01*
X106035D01*
Y193809D02*
Y202471D01*
X100523Y193809D02*
X106035D01*
X159535Y182809D02*
Y191471D01*
X154023Y182809D02*
X159535D01*
X154023D02*
Y191471D01*
X159535D01*
D12*
X34448Y227053D02*
Y229475D01*
X43110Y227053D02*
Y229475D01*
X34448D02*
X43110D01*
Y141483D02*
Y143904D01*
X34448Y141483D02*
X43110D01*
X34448D02*
Y143904D01*
X8779Y143983D02*
X68779D01*
Y226975D01*
X8779D02*
X68779D01*
X8779Y143983D02*
Y226975D01*
X185468Y336317D02*
X209090D01*
Y279231D02*
Y336317D01*
X185468Y279231D02*
X209090D01*
X185468D02*
Y336317D01*
X207121D02*
Y346160D01*
X187436D02*
X207121D01*
X187436Y336317D02*
Y346160D01*
X34632Y330281D02*
Y332702D01*
X43293Y330281D02*
Y332702D01*
X34632D02*
X43293D01*
Y244710D02*
Y247131D01*
X34632Y244710D02*
X43293D01*
X34632D02*
Y247131D01*
X8963Y247210D02*
X68963D01*
Y330202D01*
X8963D02*
X68963D01*
X8963Y247210D02*
Y330202D01*
D41*
X220924Y128129D02*
X226633D01*
X220924Y136829D02*
X226633D01*
X220924Y128129D02*
Y136829D01*
X226633Y128129D02*
Y136829D01*
X134428Y101124D02*
Y106833D01*
X143129Y101124D02*
Y106833D01*
X134428D02*
X143129D01*
X134428Y101124D02*
X143129D01*
X83672Y52624D02*
Y58333D01*
X74972Y52624D02*
Y58333D01*
Y52624D02*
X83672D01*
X74972Y58333D02*
X83672D01*
X41924Y64585D02*
X47633D01*
X41924Y73286D02*
X47633D01*
X41924Y64585D02*
Y73286D01*
X47633Y64585D02*
Y73286D01*
X16928Y51124D02*
Y56833D01*
X25629Y51124D02*
Y56833D01*
X16928D02*
X25629D01*
X16928Y51124D02*
X25629D01*
X89424Y303786D02*
X95133D01*
X89424Y295085D02*
X95133D01*
Y303786D01*
X89424Y295085D02*
Y303786D01*
X111424Y302829D02*
X117133D01*
X111424Y294128D02*
X117133D01*
Y302829D01*
X111424Y294128D02*
Y302829D01*
X135424Y303286D02*
X141133D01*
X135424Y294585D02*
X141133D01*
Y303286D01*
X135424Y294585D02*
Y303286D01*
X88424Y236829D02*
X94133D01*
X88424Y228128D02*
X94133D01*
Y236829D01*
X88424Y228128D02*
Y236829D01*
X110424Y237829D02*
X116133D01*
X110424Y229128D02*
X116133D01*
Y237829D01*
X110424Y229128D02*
Y237829D01*
X134924Y238286D02*
X140633D01*
X134924Y229585D02*
X140633D01*
Y238286D01*
X134924Y229585D02*
Y238286D01*
M02*
