G04*
G04 #@! TF.GenerationSoftware,Altium Limited,Altium Designer,21.5.1 (32)*
G04*
G04 Layer_Color=16711935*
%FSLAX25Y25*%
%MOIN*%
G70*
G04*
G04 #@! TF.SameCoordinates,B2D6323A-8D7E-4EAA-9919-96392ECDF185*
G04*
G04*
G04 #@! TF.FilePolarity,Negative*
G04*
G01*
G75*
%ADD32C,0.12611*%
%ADD33C,0.06181*%
%ADD34R,0.06181X0.06181*%
%ADD35C,0.07493*%
%ADD36C,0.05800*%
D32*
X38779Y227998D02*
D03*
Y142959D02*
D03*
X38963Y331226D02*
D03*
Y246186D02*
D03*
D33*
X114779Y271979D02*
D03*
X271279Y258479D02*
D03*
X286779Y78979D02*
D03*
X136279Y79979D02*
D03*
X204779Y256479D02*
D03*
X180779Y248979D02*
D03*
X158279D02*
D03*
D34*
X114779Y261979D02*
D03*
X271279Y248479D02*
D03*
X286779Y88979D02*
D03*
X136279Y69979D02*
D03*
X204779Y246479D02*
D03*
X180779Y258979D02*
D03*
X158279D02*
D03*
D35*
X197279Y322538D02*
D03*
Y294979D02*
D03*
D36*
X13689Y63806D02*
D03*
X174279Y137479D02*
D03*
X180779Y136022D02*
D03*
X275279Y303879D02*
D03*
X268779Y305279D02*
D03*
X186779Y142979D02*
D03*
M02*
